<svg id="Layer_1" enable-background="new 0 0 479.973 479.973" height="512" viewBox="0 0 479.973 479.973" width="512" xmlns="http://www.w3.org/2000/svg"><path d="m385.747 190.323c-1.683 6.254-4.58 11.944-8.399 16.85-4.698 6.036-14.361 2.772-14.351-4.878.013-9.879-.01-26.762-.01-57.088 0-39.764-32.234-72.005-71.999-72.005h-102.003c-39.764 0-71.999 32.239-71.999 72.003 0 30.581-.03 47.401-.022 57.159.006 7.644-9.642 10.903-14.347 4.878-3.844-4.921-6.759-10.636-8.451-16.921-13.673-50.732-.401-106.617 39.38-146.23 59.725-59.472 154.771-58.201 213.14.29 39.745 39.832 52.59 95.605 39.061 145.942zm-94.76-101.12h-102c-30.88 0-56 25.13-56 56 0 .235-.006 66.346.01 66.58.91 58.23 48.56 105.31 106.99 105.31 58.72 0 106.54-47.54 107-106.16v-65.73c0-30.88-25.121-56-56-56zm6.06 250.75c-7.73 23.81-31.31 39.84-56.94 39.84-25.99 0-48.52-17.41-57.07-39.63-1.11-2.87-.41-6.13 1.73-8.32 1.191-1.22 2.231-2.465 3.138-3.723 2.086-2.891 5.873-3.985 9.213-2.738 28.115 10.5 58.799 10.07 85.745-.002 3.34-1.248 7.134-.159 9.216 2.736.922 1.282 1.981 2.549 3.198 3.787 2.069 2.11 2.689 5.23 1.77 8.05zm14.327 7.518c1.19-3.227 4.286-5.363 7.725-5.33 48.451.467 82.887 38.834 82.887 82.572v47.26c0 4.418-3.582 8-8 8h-308c-4.418 0-8-3.582-8-8v-47.26c0-45.63 36.942-82.57 82.57-82.57 4.16 0 6.85 2.096 8.035 5.041 26.407 65.618 119.816 62.568 142.783.287z"/></svg>